<svg xmlns="http://www.w3.org/2000/svg" viewBox="0 0 1024 1024" role="img" aria-label="Psync"><defs><linearGradient id="bg" x1="0" y1="0" x2="0" y2="1"><stop offset="0" stop-color="#131318"/><stop offset="1" stop-color="#08080a"/></linearGradient></defs><rect width="1024" height="1024" fill="url(#bg)"/><path d="M 318,560 L 326.1,566 L 334.2,571.9 L 342.2,577.6 L 350.3,583 L 358.4,588 L 366.5,592.5 L 374.6,596.5 L 382.7,599.8 L 390.8,602.5 L 398.8,604.4 L 406.9,605.6 L 415,606 L 423.1,605.6 L 431.2,604.4 L 439.2,602.5 L 447.3,599.8 L 455.4,596.5 L 463.5,592.5 L 471.6,588 L 479.7,583 L 487.8,577.6 L 495.8,571.9 L 503.9,566 L 512,560 L 520.1,554 L 528.2,548.1 L 536.2,542.4 L 544.3,537 L 552.4,532 L 560.5,527.5 L 568.6,523.5 L 576.7,520.2 L 584.8,517.5 L 592.8,515.6 L 600.9,514.4 L 609,514 L 617.1,514.4 L 625.2,515.6 L 633.2,517.5 L 641.3,520.2 L 649.4,523.5 L 657.5,527.5 L 665.6,532 L 673.7,537 L 681.8,542.4 L 689.8,548.1 L 697.9,554 L 706,560" fill="none" stroke="#e94560" stroke-width="34" stroke-linecap="round" stroke-linejoin="round"/><circle cx="330" cy="560" r="104" fill="none" stroke="#ffffff" stroke-width="36"/><circle cx="694" cy="560" r="104" fill="none" stroke="#ffffff" stroke-width="36"/></svg>
